<svg xmlns="http://www.w3.org/2000/svg" viewBox="0 0 1000 1000" preserveAspectRatio="none">
  <defs><filter id="edge" x="-14%" y="-12%" width="128%" height="124%"><feTurbulence type="fractalNoise" baseFrequency=".025 .008" numOctaves="3" seed="73" result="n"/><feDisplacementMap in="SourceGraphic" in2="n" scale="62"/><feGaussianBlur stdDeviation="22"/></filter></defs>
  <path filter="url(#edge)" fill="white" d="M138 43c137-71 353-26 489 15 126 38 278 109 312 237 29 112-80 194-91 308-11 116 44 242-55 320-95 75-231 14-348 27-120 13-259 85-350 4-83-75-18-205-35-317C42 516-25 403 20 281 48 204 54 86 138 43z"/>
</svg>
